<?xml version="1.0" encoding="UTF-8" standalone="no"?>
<!-- Created with Inkscape (http://www.inkscape.org/) -->
<svg xmlns:dc="http://purl.org/dc/elements/1.1/" xmlns:cc="http://creativecommons.org/ns#" xmlns:rdf="http://www.w3.org/1999/02/22-rdf-syntax-ns#" xmlns:svg="http://www.w3.org/2000/svg" xmlns="http://www.w3.org/2000/svg" xmlns:sodipodi="http://sodipodi.sourceforge.net/DTD/sodipodi-0.dtd" xmlns:inkscape="http://www.inkscape.org/namespaces/inkscape" width="300" height="330.07278" id="svg4553" version="1.1" inkscape:version="0.48.4 r9939" sodipodi:docname="New document 5">
  <defs id="defs4555">
    <clipPath clipPathUnits="userSpaceOnUse" id="clipPath20">
      <path inkscape:connector-curvature="0" d="m 215.932,78.708 404.357,0 0,427.277 -404.357,0 0,-427.277 z" id="path22"/>
    </clipPath>
  </defs>
  <sodipodi:namedview id="base" pagecolor="#ffffff" bordercolor="#666666" borderopacity="1.0" inkscape:pageopacity="0.0" inkscape:pageshadow="2" inkscape:zoom="0.98994949" inkscape:cx="251.3986" inkscape:cy="136.51963" inkscape:document-units="px" inkscape:current-layer="layer1" showgrid="false" fit-margin-top="2" fit-margin-left="2" fit-margin-right="2" fit-margin-bottom="2" inkscape:window-width="1366" inkscape:window-height="705" inkscape:window-x="-8" inkscape:window-y="-8" inkscape:window-maximized="1"/>
  <metadata id="metadata4558">
    <rdf:RDF>
      <cc:Work rdf:about="">
        <dc:format>image/svg+xml</dc:format>
        <dc:type rdf:resource="http://purl.org/dc/dcmitype/StillImage"/>
        <dc:title/>
      </cc:Work>
    </rdf:RDF>
  </metadata>
  <g inkscape:label="Layer 1" inkscape:groupmode="layer" id="layer1" transform="translate(-158.17722,-268.67652)">
    <g transform="matrix(0.99710536,0,0,-0.99710536,-108.72285,721.60266)" id="g16">
      <g id="g18" clip-path="url(#clipPath20)">
        <g id="g24" transform="translate(269.8054,236.7816)">
          <path inkscape:connector-curvature="0" d="m 0,0 14.221,0 0,-41.13 c 0,-4.601 0.543,-7.96 1.63,-10.079 1.689,-3.753 5.372,-5.629 11.046,-5.629 5.644,0 9.311,1.876 11.001,5.629 1.087,2.119 1.631,5.478 1.631,10.079 l 0,41.13 14.22,0 0,-41.164 c 0,-7.118 -1.103,-12.661 -3.311,-16.629 -4.113,-7.27 -11.959,-10.904 -23.541,-10.904 -11.581,0 -19.443,3.634 -23.586,10.904 C 1.103,-53.825 0,-48.282 0,-41.164 L 0,0 z" style="fill:#004990;fill-opacity:1;fill-rule:nonzero;stroke:none" id="path26"/>
        </g>
        <g id="g28" transform="translate(337.2309,236.7816)">
          <path inkscape:connector-curvature="0" d="m 0,0 13.767,0 0,-27.594 L 39.642,0 57.724,0 30.241,-27.542 l 28.892,-39.429 -17.992,0 -20.634,29.235 -6.74,-6.834 0,-22.401 L 0,-66.971 0,0 z" style="fill:#004990;fill-opacity:1;fill-rule:nonzero;stroke:none" id="path30"/>
        </g>
        <g id="g32" transform="translate(444.9573,201.4949)">
          <path inkscape:connector-curvature="0" d="M 0,0 C -1.092,-0.677 -2.193,-1.225 -3.303,-1.643 -4.416,-2.062 -5.94,-2.45 -7.879,-2.808 l -3.878,-0.718 c -3.636,-0.638 -6.246,-1.416 -7.832,-2.332 -2.683,-1.554 -4.024,-3.966 -4.024,-7.233 0,-2.911 0.818,-5.013 2.458,-6.308 1.639,-1.295 3.631,-1.942 5.979,-1.942 3.723,0 7.152,1.076 10.29,3.228 3.136,2.152 4.765,6.078 4.886,11.776 L 0,0 z m -10.418,7.953 c 3.171,0.397 5.438,0.894 6.804,1.494 2.449,1.036 3.675,2.649 3.675,4.842 0,2.669 -0.941,4.514 -2.819,5.53 -1.878,1.017 -4.636,1.524 -8.271,1.524 -4.081,0 -6.97,-0.996 -8.665,-2.989 -1.214,-1.474 -2.021,-3.467 -2.425,-5.977 l -16.44,0 c 0.359,5.698 1.96,10.381 4.803,14.048 4.523,5.739 12.288,8.608 23.297,8.608 7.163,0 13.528,-1.414 19.092,-4.244 5.563,-2.83 8.346,-8.17 8.346,-16.021 l 0,-29.892 c 0,-2.073 0.039,-4.584 0.119,-7.533 0.12,-2.233 0.458,-3.747 1.017,-4.543 0.558,-0.799 1.394,-1.455 2.511,-1.973 l 0,-2.512 -18.533,0 c -0.519,1.316 -0.878,2.552 -1.076,3.707 -0.2,1.156 -0.358,2.472 -0.478,3.946 -2.366,-2.551 -5.092,-4.722 -8.178,-6.516 -3.689,-2.112 -7.858,-3.168 -12.508,-3.168 -5.934,0 -10.834,1.684 -14.703,5.051 -3.868,3.368 -5.802,8.14 -5.802,14.318 0,8.01 3.111,13.81 9.334,17.397 3.414,1.952 8.433,3.349 15.057,4.185 l 5.843,0.718 z" style="fill:#e31837;fill-opacity:1;fill-rule:nonzero;stroke:none" id="path34"/>
        </g>
        <path inkscape:connector-curvature="0" d="m 492.768,240.534 -17.277,0 0,17.277 17.277,0 0,-17.277 z" style="fill:#e31837;fill-opacity:1;fill-rule:nonzero;stroke:none" id="path36"/>
        <path inkscape:connector-curvature="0" d="m 475.491,234.973 17.277,0 0,-65.163 -17.277,0 0,65.163 z" style="fill:#e31837;fill-opacity:1;fill-rule:nonzero;stroke:none" id="path38"/>
        <g id="g40" transform="translate(545.913,187.506)">
          <path inkscape:connector-curvature="0" d="m 0,0 c 2.511,3.588 3.767,8.229 3.767,13.93 0,7.971 -2.012,13.669 -6.038,17.099 -2.471,2.07 -5.341,3.108 -8.609,3.108 -4.982,0 -8.638,-1.884 -10.969,-5.65 -2.332,-3.766 -3.498,-8.44 -3.498,-14.019 0,-6.018 1.186,-10.831 3.556,-14.437 2.371,-3.608 5.968,-5.41 10.792,-5.41 4.823,0 8.488,1.792 10.999,5.379 m -4.185,46.422 c 3.07,-1.734 5.562,-4.136 7.475,-7.204 l 0,31.087 17.276,0 0,-88.001 -16.56,0 0,9.028 c -2.431,-3.866 -5.201,-6.676 -8.31,-8.43 -3.109,-1.753 -6.974,-2.629 -11.598,-2.629 -7.613,0 -14.019,3.078 -19.22,9.237 -5.2,6.157 -7.801,14.056 -7.801,23.702 0,11.122 2.56,19.868 7.682,26.246 5.12,6.375 11.966,9.564 20.535,9.564 3.946,0 7.453,-0.866 10.521,-2.6" style="fill:#e31837;fill-opacity:1;fill-rule:nonzero;stroke:none" id="path42"/>
        </g>
        <path inkscape:connector-curvature="0" d="m 566.54,275.085 -296.733,0 0,177.15 296.733,0 0,-177.15 z" style="fill:#ffffff;fill-opacity:1;fill-rule:evenodd;stroke:none" id="path44"/>
        <g id="g46" transform="translate(566.5398,393.1851)">
          <path inkscape:connector-curvature="0" d="M 0,0 0,38.391 -64.307,0 0,0 z" style="fill:#004990;fill-opacity:1;fill-rule:evenodd;stroke:none" id="path48"/>
        </g>
        <g id="g50" transform="translate(388.4995,452.2122)">
          <path inkscape:connector-curvature="0" d="M 0,0 -84.054,0 0,-50.18 0,0 z" style="fill:#004990;fill-opacity:1;fill-rule:evenodd;stroke:none" id="path52"/>
        </g>
        <g id="g54" transform="translate(269.8062,334.1352)">
          <path inkscape:connector-curvature="0" d="M 0,0 0,-38.39 64.304,0 0,0 z" style="fill:#004990;fill-opacity:1;fill-rule:evenodd;stroke:none" id="path56"/>
        </g>
        <g id="g58" transform="translate(447.8464,452.2122)">
          <path inkscape:connector-curvature="0" d="M 0,0 0,-50.179 84.053,0 0,0 z" style="fill:#004990;fill-opacity:1;fill-rule:evenodd;stroke:none" id="path60"/>
        </g>
        <g id="g62" transform="translate(269.8062,431.5751)">
          <path inkscape:connector-curvature="0" d="m 0,0 0,-38.39 64.305,0 L 0,0 z" style="fill:#004990;fill-opacity:1;fill-rule:evenodd;stroke:none" id="path64"/>
        </g>
        <g id="g66" transform="translate(566.5398,295.7439)">
          <path inkscape:connector-curvature="0" d="m 0,0 0,38.391 -64.307,0 L 0,0 z" style="fill:#004990;fill-opacity:1;fill-rule:evenodd;stroke:none" id="path68"/>
        </g>
        <g id="g70" transform="translate(304.4069,275.0852)">
          <path inkscape:connector-curvature="0" d="m 0,0 84.092,0 0,50.203 L 0,0 z" style="fill:#004990;fill-opacity:1;fill-rule:evenodd;stroke:none" id="path72"/>
        </g>
        <g id="g74" transform="translate(447.8464,275.0852)">
          <path inkscape:connector-curvature="0" d="M 0,0 84.091,0 0,50.201 0,0 z" style="fill:#004990;fill-opacity:1;fill-rule:evenodd;stroke:none" id="path76"/>
        </g>
        <g id="g78" transform="translate(269.8062,275.0852)">
          <path inkscape:connector-curvature="0" d="m 0,0 98.907,59.05 19.786,0 0,-1.961 L 23.066,0 0,0 z m 178.04,120.063 95.626,57.087 23.067,0 -98.91,-59.05 -19.783,0 0,1.963 z m 42.851,-61.013 75.842,-45.277 0,-13.773 -98.912,59.05 23.07,0 z M 75.84,118.1 0,163.375 0,177.15 98.91,118.1 l -23.07,0 z" style="fill:#e31837;fill-opacity:1;fill-rule:nonzero;stroke:none" id="path80"/>
        </g>
        <g id="g82" transform="translate(400.3696,275.0852)">
          <path inkscape:connector-curvature="0" d="m 0,0 0,70.859 -130.563,0 0,35.43 130.563,0 0,70.861 35.606,0 0,-70.861 130.564,0 0,-35.43 -130.564,0 L 35.606,0 0,0 z" style="fill:#e31837;fill-opacity:1;fill-rule:nonzero;stroke:none" id="path84"/>
        </g>
        <g id="g86" transform="translate(269.6807,144.2795)">
          <path inkscape:connector-curvature="0" d="m 0,0 0,2.238 2.596,0 0,2.297 c 0,1.254 0.362,2.203 1.089,2.849 0.725,0.647 1.785,0.97 3.177,0.97 0.239,0 0.512,-0.02 0.82,-0.059 0.309,-0.041 0.582,-0.1 0.821,-0.179 l 0,-2.208 C 8.284,5.987 8.045,6.042 7.787,6.072 7.528,6.102 7.29,6.117 7.071,6.117 6.454,6.117 5.977,5.997 5.639,5.759 5.3,5.52 5.132,5.062 5.132,4.386 l 0,-2.148 2.983,0 0,-2.238 -2.983,0 0,-13.187 -2.536,0 L 2.596,0 0,0 z" style="fill:#004990;fill-opacity:1;fill-rule:nonzero;stroke:none" id="path88"/>
        </g>
        <g id="g90" transform="translate(281.9367,146.5173)">
          <path inkscape:connector-curvature="0" d="m 0,0 0,-3.252 0.06,0 c 0.616,1.254 1.372,2.178 2.267,2.775 0.895,0.597 2.029,0.875 3.401,0.835 l 0,-2.685 C 4.714,-2.327 3.849,-2.466 3.133,-2.745 2.417,-3.023 1.839,-3.431 1.402,-3.968 0.965,-4.505 0.646,-5.157 0.448,-5.922 0.249,-6.688 0.149,-7.568 0.149,-8.563 l 0,-6.862 -2.536,0 L -2.387,0 0,0 z" style="fill:#004990;fill-opacity:1;fill-rule:nonzero;stroke:none" id="path92"/>
        </g>
        <g id="g94" transform="translate(291.3077,136.2988)">
          <path inkscape:connector-curvature="0" d="m 0,0 c 0.249,-0.727 0.591,-1.333 1.029,-1.82 0.438,-0.487 0.95,-0.86 1.537,-1.119 0.586,-0.258 1.208,-0.387 1.864,-0.387 0.657,0 1.278,0.129 1.865,0.387 0.586,0.259 1.099,0.632 1.536,1.119 0.438,0.487 0.781,1.093 1.03,1.82 0.249,0.726 0.373,1.557 0.373,2.492 0,0.934 -0.124,1.765 -0.373,2.49 C 8.612,5.708 8.269,6.32 7.831,6.817 7.394,7.314 6.881,7.692 6.295,7.951 5.708,8.21 5.087,8.339 4.43,8.339 3.774,8.339 3.152,8.21 2.566,7.951 1.979,7.692 1.467,7.314 1.029,6.817 0.591,6.32 0.249,5.708 0,4.982 -0.249,4.257 -0.373,3.426 -0.373,2.492 -0.373,1.557 -0.249,0.726 0,0 m -2.581,5.669 c 0.318,0.985 0.796,1.84 1.433,2.566 0.636,0.726 1.421,1.298 2.357,1.715 0.934,0.418 2.008,0.626 3.221,0.626 1.233,0 2.313,-0.208 3.238,-0.626 C 8.593,9.533 9.373,8.961 10.01,8.235 10.646,7.509 11.123,6.654 11.442,5.669 11.76,4.684 11.919,3.625 11.919,2.492 11.919,1.358 11.76,0.303 11.442,-0.671 11.123,-1.646 10.646,-2.496 10.01,-3.222 9.373,-3.949 8.593,-4.515 7.668,-4.923 6.743,-5.33 5.663,-5.534 4.43,-5.534 c -1.213,0 -2.287,0.204 -3.221,0.611 -0.936,0.408 -1.721,0.974 -2.357,1.701 -0.637,0.726 -1.115,1.576 -1.433,2.551 -0.318,0.974 -0.477,2.029 -0.477,3.163 0,1.133 0.159,2.192 0.477,3.177" style="fill:#004990;fill-opacity:1;fill-rule:nonzero;stroke:none" id="path96"/>
        </g>
        <g id="g98" transform="translate(308.1941,146.5173)">
          <path inkscape:connector-curvature="0" d="m 0,0 0,-2.267 0.06,0 c 1.153,1.75 2.814,2.625 4.982,2.625 0.955,0 1.82,-0.199 2.596,-0.596 0.776,-0.399 1.323,-1.075 1.641,-2.029 0.517,0.835 1.198,1.481 2.043,1.939 0.846,0.457 1.776,0.686 2.79,0.686 0.776,0 1.477,-0.085 2.103,-0.254 0.627,-0.168 1.164,-0.432 1.612,-0.79 0.447,-0.358 0.795,-0.821 1.044,-1.387 0.248,-0.568 0.373,-1.249 0.373,-2.044 l 0,-11.308 -2.536,0 0,10.114 c 0,0.478 -0.041,0.925 -0.12,1.343 -0.079,0.418 -0.228,0.78 -0.447,1.089 -0.219,0.308 -0.523,0.552 -0.91,0.731 -0.388,0.179 -0.891,0.268 -1.507,0.268 -1.253,0 -2.237,-0.358 -2.953,-1.074 -0.717,-0.716 -1.075,-1.67 -1.075,-2.864 l 0,-9.607 -2.536,0 0,10.114 c 0,0.498 -0.044,0.955 -0.134,1.373 -0.09,0.417 -0.243,0.78 -0.462,1.089 C 6.345,-2.541 6.051,-2.302 5.683,-2.133 5.315,-1.964 4.843,-1.88 4.266,-1.88 3.531,-1.88 2.899,-2.029 2.372,-2.327 1.845,-2.625 1.417,-2.983 1.089,-3.401 0.761,-3.819 0.522,-4.251 0.373,-4.699 0.224,-5.146 0.149,-5.52 0.149,-5.818 l 0,-9.607 -2.536,0 L -2.387,0 0,0 z" style="fill:#004990;fill-opacity:1;fill-rule:nonzero;stroke:none" id="path100"/>
        </g>
        <g id="g102" transform="translate(346.1445,146.5173)">
          <path inkscape:connector-curvature="0" d="m 0,0 0,-2.238 -3.073,0 0,-9.577 c 0,-0.298 0.025,-0.537 0.074,-0.715 0.05,-0.179 0.144,-0.319 0.284,-0.418 0.139,-0.1 0.333,-0.164 0.582,-0.194 0.248,-0.03 0.571,-0.045 0.969,-0.045 l 1.164,0 0,-2.238 -1.939,0 c -0.657,0 -1.219,0.045 -1.686,0.134 -0.468,0.09 -0.846,0.254 -1.134,0.493 -0.288,0.238 -0.502,0.577 -0.641,1.014 -0.139,0.438 -0.209,1.015 -0.209,1.731 l 0,9.815 -2.626,0 0,2.238 2.626,0 0,4.625 2.536,0 L -3.073,0 0,0 z" style="fill:#004990;fill-opacity:1;fill-rule:nonzero;stroke:none" id="path104"/>
        </g>
        <g id="g106" transform="translate(350.8788,152.3951)">
          <path inkscape:connector-curvature="0" d="m 0,0 0,-8.146 0.06,0 c 0.198,0.478 0.477,0.881 0.835,1.209 0.358,0.328 0.761,0.597 1.209,0.806 0.447,0.208 0.914,0.362 1.401,0.462 0.488,0.099 0.96,0.149 1.418,0.149 1.014,0 1.86,-0.139 2.536,-0.417 0.676,-0.279 1.223,-0.667 1.641,-1.164 0.417,-0.498 0.711,-1.089 0.88,-1.775 0.169,-0.686 0.253,-1.447 0.253,-2.282 l 0,-10.144 -2.536,0 0,10.442 c 0,0.954 -0.279,1.711 -0.835,2.267 -0.557,0.557 -1.323,0.836 -2.297,0.836 -0.776,0 -1.447,-0.119 -2.014,-0.359 C 1.984,-8.354 1.511,-8.692 1.134,-9.13 0.755,-9.567 0.472,-10.08 0.284,-10.666 0.094,-11.253 0,-11.895 0,-12.59 l 0,-8.712 -2.536,0 L -2.536,0 0,0 z" style="fill:#004990;fill-opacity:1;fill-rule:nonzero;stroke:none" id="path108"/>
        </g>
        <g id="g110" transform="translate(374.7647,141.9823)">
          <path inkscape:connector-curvature="0" d="M 0,0 C -0.229,0.537 -0.537,1 -0.925,1.387 -1.313,1.775 -1.77,2.083 -2.297,2.313 -2.824,2.541 -3.406,2.655 -4.042,2.655 -4.699,2.655 -5.291,2.541 -5.818,2.313 -6.345,2.083 -6.798,1.77 -7.175,1.372 -7.554,0.974 -7.851,0.512 -8.07,-0.015 -8.289,-0.542 -8.418,-1.104 -8.458,-1.7 l 8.861,0 C 0.363,-1.104 0.229,-0.536 0,0 m 0.611,-9.905 c -1.153,-0.875 -2.605,-1.313 -4.355,-1.313 -1.234,0 -2.303,0.199 -3.208,0.597 -0.905,0.397 -1.666,0.954 -2.282,1.67 -0.617,0.717 -1.079,1.572 -1.387,2.567 -0.309,0.994 -0.482,2.078 -0.523,3.252 0,1.173 0.18,2.247 0.538,3.222 0.358,0.974 0.86,1.819 1.506,2.536 0.647,0.716 1.412,1.272 2.298,1.671 0.885,0.397 1.854,0.596 2.909,0.596 1.372,0 2.51,-0.283 3.416,-0.85 C 0.428,3.476 1.154,2.755 1.701,1.88 2.248,1.004 2.625,0.05 2.834,-0.985 3.043,-2.019 3.128,-3.003 3.088,-3.938 l -11.546,0 c -0.02,-0.677 0.06,-1.318 0.239,-1.924 0.179,-0.607 0.467,-1.145 0.865,-1.611 0.397,-0.468 0.904,-0.841 1.521,-1.12 0.617,-0.278 1.343,-0.417 2.178,-0.417 1.074,0 1.954,0.249 2.641,0.746 0.686,0.496 1.138,1.253 1.357,2.267 l 2.506,0 C 2.511,-7.727 1.765,-9.03 0.611,-9.905" style="fill:#004990;fill-opacity:1;fill-rule:nonzero;stroke:none" id="path112"/>
        </g>
        <g id="g114" transform="translate(399.1249,133.4798)">
          <path inkscape:connector-curvature="0" d="M 0,0 C 1.253,0 2.233,0.338 2.939,1.014 3.645,1.69 3.998,2.625 3.998,3.818 3.998,4.515 3.869,5.091 3.61,5.549 3.351,6.006 3.009,6.37 2.581,6.638 2.153,6.907 1.661,7.096 1.104,7.205 0.547,7.314 -0.03,7.369 -0.627,7.369 l -6.474,0 L -7.101,0 0,0 z m -1.432,9.756 c 1.611,0 2.77,0.283 3.476,0.851 0.706,0.566 1.059,1.417 1.059,2.55 0,0.756 -0.12,1.353 -0.358,1.79 -0.239,0.438 -0.567,0.776 -0.985,1.014 -0.417,0.24 -0.899,0.393 -1.446,0.463 -0.548,0.07 -1.13,0.105 -1.746,0.105 l -5.669,0 0,-6.773 5.669,0 z m -0.776,9.16 c 0.458,0 0.95,-0.006 1.477,-0.016 0.527,-0.01 1.049,-0.04 1.566,-0.089 0.518,-0.05 1,-0.125 1.448,-0.224 0.447,-0.1 0.83,-0.249 1.148,-0.448 0.696,-0.417 1.288,-0.994 1.776,-1.73 0.486,-0.736 0.73,-1.641 0.73,-2.715 0,-1.134 -0.274,-2.113 -0.82,-2.939 C 4.569,9.93 3.789,9.319 2.775,8.921 l 0,-0.06 C 4.087,8.582 5.092,7.985 5.788,7.07 6.484,6.155 6.832,5.042 6.832,3.729 6.832,2.954 6.693,2.197 6.415,1.462 6.136,0.726 5.724,0.075 5.177,-0.493 4.629,-1.059 3.953,-1.517 3.148,-1.865 2.342,-2.214 1.412,-2.387 0.358,-2.387 l -10.293,0 0,21.303 7.727,0 z" style="fill:#004990;fill-opacity:1;fill-rule:nonzero;stroke:none" id="path116"/>
        </g>
        <g id="g118" transform="translate(411.1428,146.5173)">
          <path inkscape:connector-curvature="0" d="m 0,0 0,-3.252 0.06,0 c 0.616,1.254 1.372,2.178 2.267,2.775 0.895,0.597 2.029,0.875 3.401,0.835 l 0,-2.685 C 4.714,-2.327 3.849,-2.466 3.133,-2.745 2.417,-3.023 1.839,-3.431 1.402,-3.968 0.965,-4.505 0.646,-5.157 0.448,-5.922 0.249,-6.688 0.149,-7.568 0.149,-8.563 l 0,-6.862 -2.536,0 L -2.387,0 0,0 z" style="fill:#004990;fill-opacity:1;fill-rule:nonzero;stroke:none" id="path120"/>
        </g>
        <path inkscape:connector-curvature="0" d="m 421.104,131.092 -2.536,0 0,15.425 2.536,0 0,-15.425 z m -2.536,21.303 2.536,0 0,-3.103 -2.536,0 0,3.103 z" style="fill:#004990;fill-opacity:1;fill-rule:nonzero;stroke:none" id="path122"/>
        <g id="g124" transform="translate(431.1612,146.5173)">
          <path inkscape:connector-curvature="0" d="m 0,0 0,-2.238 -3.073,0 0,-9.577 c 0,-0.298 0.025,-0.537 0.074,-0.715 0.05,-0.179 0.145,-0.319 0.284,-0.418 0.139,-0.1 0.333,-0.164 0.582,-0.194 0.248,-0.03 0.572,-0.045 0.969,-0.045 l 1.164,0 0,-2.238 -1.939,0 c -0.657,0 -1.219,0.045 -1.686,0.134 -0.467,0.09 -0.846,0.254 -1.134,0.493 -0.288,0.238 -0.502,0.577 -0.641,1.014 -0.139,0.438 -0.209,1.015 -0.209,1.731 l 0,9.815 -2.625,0 0,2.238 2.625,0 0,4.625 2.536,0 L -3.073,0 0,0 z" style="fill:#004990;fill-opacity:1;fill-rule:nonzero;stroke:none" id="path126"/>
        </g>
        <path inkscape:connector-curvature="0" d="m 436.015,131.092 -2.536,0 0,15.425 2.536,0 0,-15.425 z m -2.536,21.303 2.536,0 0,-3.103 -2.536,0 0,3.103 z" style="fill:#004990;fill-opacity:1;fill-rule:nonzero;stroke:none" id="path128"/>
        <g id="g130" transform="translate(441.5377,134.5389)">
          <path inkscape:connector-curvature="0" d="m 0,0 c 0.238,-0.388 0.552,-0.697 0.94,-0.925 0.387,-0.229 0.824,-0.393 1.312,-0.492 0.487,-0.1 0.99,-0.15 1.507,-0.15 0.398,0 0.815,0.03 1.253,0.09 0.437,0.06 0.84,0.168 1.208,0.328 0.368,0.159 0.671,0.393 0.91,0.701 0.239,0.308 0.359,0.701 0.359,1.179 0,0.656 -0.25,1.153 -0.746,1.491 C 6.246,2.561 5.624,2.834 4.878,3.043 4.132,3.252 3.321,3.44 2.446,3.61 1.571,3.779 0.761,4.017 0.014,4.326 -0.731,4.634 -1.353,5.067 -1.85,5.624 -2.347,6.181 -2.596,6.956 -2.596,7.95 c 0,0.777 0.174,1.443 0.522,2 0.348,0.556 0.796,1.009 1.343,1.358 0.546,0.348 1.163,0.606 1.85,0.775 0.686,0.168 1.367,0.253 2.043,0.253 0.875,0 1.681,-0.074 2.417,-0.223 0.735,-0.15 1.387,-0.408 1.954,-0.776 C 8.1,10.969 8.552,10.472 8.89,9.846 9.228,9.219 9.428,8.438 9.487,7.503 l -2.536,0 C 6.911,8 6.782,8.414 6.563,8.742 6.344,9.07 6.066,9.333 5.728,9.532 5.39,9.73 5.017,9.875 4.609,9.964 c -0.408,0.09 -0.82,0.135 -1.238,0.135 -0.378,0 -0.761,-0.03 -1.149,-0.09 C 1.835,9.95 1.481,9.846 1.164,9.696 0.845,9.547 0.586,9.348 0.387,9.1 0.188,8.85 0.089,8.527 0.089,8.13 0.089,7.692 0.243,7.329 0.552,7.041 0.86,6.752 1.253,6.514 1.73,6.325 2.208,6.136 2.744,5.976 3.342,5.848 3.938,5.718 4.534,5.584 5.132,5.445 5.768,5.305 6.389,5.136 6.996,4.938 7.602,4.739 8.14,4.475 8.607,4.147 9.074,3.818 9.453,3.405 9.741,2.909 10.029,2.411 10.174,1.794 10.174,1.059 10.174,0.124 9.98,-0.652 9.592,-1.268 9.204,-1.885 8.697,-2.383 8.07,-2.76 7.444,-3.138 6.738,-3.401 5.952,-3.55 5.166,-3.7 4.386,-3.774 3.61,-3.774 c -0.856,0 -1.671,0.089 -2.446,0.269 -0.777,0.179 -1.462,0.471 -2.06,0.879 -0.596,0.408 -1.074,0.945 -1.431,1.612 -0.359,0.665 -0.558,1.476 -0.597,2.431 l 2.536,0 C -0.368,0.86 -0.239,0.387 0,0" style="fill:#004990;fill-opacity:1;fill-rule:nonzero;stroke:none" id="path132"/>
        </g>
        <g id="g134" transform="translate(456.6909,152.3951)">
          <path inkscape:connector-curvature="0" d="m 0,0 0,-8.146 0.06,0 c 0.198,0.478 0.477,0.881 0.835,1.209 0.358,0.328 0.761,0.597 1.209,0.806 0.447,0.208 0.914,0.362 1.401,0.462 0.488,0.099 0.96,0.149 1.418,0.149 1.014,0 1.86,-0.139 2.536,-0.417 0.676,-0.279 1.223,-0.667 1.641,-1.164 0.417,-0.498 0.711,-1.089 0.88,-1.775 0.169,-0.686 0.253,-1.447 0.253,-2.282 l 0,-10.144 -2.536,0 0,10.442 c 0,0.954 -0.279,1.711 -0.835,2.267 -0.557,0.557 -1.323,0.836 -2.297,0.836 -0.776,0 -1.447,-0.119 -2.014,-0.359 C 1.984,-8.354 1.512,-8.692 1.134,-9.13 0.755,-9.567 0.472,-10.08 0.283,-10.666 0.094,-11.253 0,-11.895 0,-12.59 l 0,-8.712 -2.536,0 L -2.536,0 0,0 z" style="fill:#004990;fill-opacity:1;fill-rule:nonzero;stroke:none" id="path136"/>
        </g>
        <g id="g138" transform="translate(490.7775,141.0428)">
          <path inkscape:connector-curvature="0" d="M 0,0 C -0.189,0.686 -0.477,1.298 -0.865,1.835 -1.253,2.372 -1.75,2.799 -2.357,3.118 -2.964,3.435 -3.675,3.595 -4.49,3.595 -5.346,3.595 -6.072,3.426 -6.668,3.088 -7.265,2.749 -7.752,2.307 -8.13,1.76 -8.508,1.213 -8.781,0.591 -8.951,-0.104 -9.12,-0.801 -9.204,-1.507 -9.204,-2.222 c 0,-0.757 0.09,-1.488 0.269,-2.194 0.179,-0.706 0.462,-1.328 0.85,-1.864 0.387,-0.538 0.89,-0.97 1.507,-1.299 0.616,-0.327 1.362,-0.492 2.237,-0.492 0.875,0 1.606,0.169 2.193,0.508 0.587,0.337 1.059,0.785 1.417,1.342 0.358,0.557 0.616,1.193 0.776,1.91 0.159,0.716 0.239,1.452 0.239,2.207 C 0.284,-1.387 0.189,-0.686 0,0 m -9.114,5.474 0,-2.088 0.059,0 c 0.418,0.855 1.074,1.477 1.969,1.864 0.895,0.389 1.88,0.583 2.954,0.583 1.193,0 2.232,-0.219 3.118,-0.657 C -0.129,4.739 0.607,4.147 1.193,3.401 1.78,2.655 2.223,1.795 2.521,0.82 2.82,-0.154 2.969,-1.189 2.969,-2.283 2.969,-3.377 2.824,-4.411 2.536,-5.386 2.248,-6.36 1.81,-7.21 1.223,-7.936 0.636,-8.663 -0.099,-9.234 -0.985,-9.651 c -0.885,-0.419 -1.914,-0.628 -3.087,-0.628 -0.379,0 -0.802,0.04 -1.269,0.12 -0.467,0.08 -0.929,0.209 -1.387,0.388 -0.458,0.179 -0.89,0.422 -1.298,0.731 -0.407,0.308 -0.751,0.691 -1.029,1.149 l -0.059,0 0,-7.936 -2.536,0 0,21.301 2.536,0 z" style="fill:#004990;fill-opacity:1;fill-rule:nonzero;stroke:none" id="path140"/>
        </g>
        <g id="g142" transform="translate(506.6433,141.9823)">
          <path inkscape:connector-curvature="0" d="M 0,0 C -0.229,0.537 -0.537,1 -0.925,1.387 -1.313,1.775 -1.771,2.083 -2.298,2.313 -2.824,2.541 -3.406,2.655 -4.043,2.655 -4.699,2.655 -5.291,2.541 -5.818,2.313 -6.345,2.083 -6.798,1.77 -7.176,1.372 -7.554,0.974 -7.852,0.512 -8.071,-0.015 -8.289,-0.542 -8.419,-1.104 -8.459,-1.7 l 8.862,0 C 0.362,-1.104 0.229,-0.536 0,0 m 0.611,-9.905 c -1.153,-0.875 -2.606,-1.313 -4.355,-1.313 -1.234,0 -2.303,0.199 -3.208,0.597 -0.905,0.397 -1.666,0.954 -2.282,1.67 -0.617,0.717 -1.079,1.572 -1.387,2.567 -0.309,0.994 -0.483,2.078 -0.523,3.252 0,1.173 0.179,2.247 0.537,3.222 0.358,0.974 0.861,1.819 1.507,2.536 0.646,0.716 1.412,1.272 2.298,1.671 0.884,0.397 1.854,0.596 2.909,0.596 1.372,0 2.51,-0.283 3.416,-0.85 C 0.427,3.476 1.153,2.755 1.701,1.88 2.247,1.004 2.626,0.05 2.834,-0.985 3.043,-2.019 3.127,-3.003 3.088,-3.938 l -11.547,0 c -0.019,-0.677 0.06,-1.318 0.239,-1.924 0.18,-0.607 0.467,-1.145 0.865,-1.611 0.398,-0.468 0.905,-0.841 1.522,-1.12 0.616,-0.278 1.343,-0.417 2.178,-0.417 1.074,0 1.954,0.249 2.641,0.746 0.686,0.496 1.138,1.253 1.357,2.267 l 2.506,0 C 2.511,-7.727 1.765,-9.03 0.611,-9.905" style="fill:#004990;fill-opacity:1;fill-rule:nonzero;stroke:none" id="path144"/>
        </g>
        <g id="g146" transform="translate(514.394,136.2988)">
          <path inkscape:connector-curvature="0" d="m 0,0 c 0.249,-0.727 0.591,-1.333 1.03,-1.82 0.437,-0.487 0.949,-0.86 1.536,-1.119 0.586,-0.258 1.208,-0.387 1.865,-0.387 0.656,0 1.277,0.129 1.864,0.387 0.586,0.259 1.099,0.632 1.537,1.119 0.437,0.487 0.78,1.093 1.029,1.82 0.248,0.726 0.373,1.557 0.373,2.492 0,0.934 -0.125,1.765 -0.373,2.49 C 8.612,5.708 8.269,6.32 7.832,6.817 7.394,7.314 6.881,7.692 6.295,7.951 5.708,8.21 5.087,8.339 4.431,8.339 3.774,8.339 3.152,8.21 2.566,7.951 1.979,7.692 1.467,7.314 1.03,6.817 0.591,6.32 0.249,5.708 0,4.982 -0.249,4.257 -0.373,3.426 -0.373,2.492 -0.373,1.557 -0.249,0.726 0,0 m -2.581,5.669 c 0.318,0.985 0.796,1.84 1.433,2.566 0.636,0.726 1.421,1.298 2.357,1.715 0.934,0.418 2.008,0.626 3.222,0.626 1.232,0 2.312,-0.208 3.237,-0.626 C 8.593,9.533 9.373,8.961 10.009,8.235 10.646,7.509 11.123,6.654 11.442,5.669 11.76,4.684 11.919,3.625 11.919,2.492 11.919,1.358 11.76,0.303 11.442,-0.671 11.123,-1.646 10.646,-2.496 10.009,-3.222 9.373,-3.949 8.593,-4.515 7.668,-4.923 6.743,-5.33 5.663,-5.534 4.431,-5.534 c -1.214,0 -2.288,0.204 -3.222,0.611 -0.936,0.408 -1.721,0.974 -2.357,1.701 -0.637,0.726 -1.115,1.576 -1.433,2.551 -0.318,0.974 -0.477,2.029 -0.477,3.163 0,1.133 0.159,2.192 0.477,3.177" style="fill:#004990;fill-opacity:1;fill-rule:nonzero;stroke:none" id="path148"/>
        </g>
        <g id="g150" transform="translate(540.5862,141.0428)">
          <path inkscape:connector-curvature="0" d="M 0,0 C -0.189,0.686 -0.477,1.298 -0.865,1.835 -1.253,2.372 -1.75,2.799 -2.357,3.118 -2.964,3.435 -3.675,3.595 -4.49,3.595 -5.346,3.595 -6.072,3.426 -6.668,3.088 -7.265,2.749 -7.752,2.307 -8.13,1.76 -8.508,1.213 -8.781,0.591 -8.951,-0.104 -9.12,-0.801 -9.204,-1.507 -9.204,-2.222 c 0,-0.757 0.09,-1.488 0.269,-2.194 0.179,-0.706 0.462,-1.328 0.85,-1.864 0.387,-0.538 0.89,-0.97 1.507,-1.299 0.616,-0.327 1.362,-0.492 2.237,-0.492 0.875,0 1.606,0.169 2.193,0.508 0.587,0.337 1.059,0.785 1.417,1.342 0.358,0.557 0.616,1.193 0.776,1.91 0.159,0.716 0.239,1.452 0.239,2.207 C 0.284,-1.387 0.189,-0.686 0,0 m -9.114,5.474 0,-2.088 0.059,0 c 0.418,0.855 1.074,1.477 1.969,1.864 0.895,0.389 1.88,0.583 2.954,0.583 1.194,0 2.233,-0.219 3.118,-0.657 C -0.129,4.739 0.607,4.147 1.193,3.401 1.78,2.655 2.223,1.795 2.521,0.82 2.82,-0.154 2.969,-1.189 2.969,-2.283 2.969,-3.377 2.824,-4.411 2.536,-5.386 2.248,-6.36 1.81,-7.21 1.223,-7.936 0.636,-8.663 -0.099,-9.234 -0.984,-9.651 c -0.886,-0.419 -1.915,-0.628 -3.088,-0.628 -0.379,0 -0.802,0.04 -1.268,0.12 -0.468,0.08 -0.93,0.209 -1.388,0.388 -0.458,0.179 -0.89,0.422 -1.298,0.731 -0.407,0.308 -0.751,0.691 -1.029,1.149 l -0.059,0 0,-7.936 -2.536,0 0,21.301 2.536,0 z" style="fill:#004990;fill-opacity:1;fill-rule:nonzero;stroke:none" id="path152"/>
        </g>
        <path inkscape:connector-curvature="0" d="m 548.773,131.092 -2.536,0 0,21.302 2.536,0 0,-21.302 z" style="fill:#004990;fill-opacity:1;fill-rule:nonzero;stroke:none" id="path154"/>
        <g id="g156" transform="translate(562.5829,141.9823)">
          <path inkscape:connector-curvature="0" d="M 0,0 C -0.229,0.537 -0.537,1 -0.925,1.387 -1.313,1.775 -1.771,2.083 -2.298,2.313 -2.824,2.541 -3.406,2.655 -4.043,2.655 -4.699,2.655 -5.291,2.541 -5.818,2.313 -6.346,2.083 -6.798,1.77 -7.176,1.372 -7.554,0.974 -7.852,0.512 -8.071,-0.015 -8.29,-0.542 -8.419,-1.104 -8.459,-1.7 l 8.862,0 C 0.362,-1.104 0.229,-0.536 0,0 m 0.611,-9.905 c -1.153,-0.875 -2.606,-1.313 -4.355,-1.313 -1.234,0 -2.303,0.199 -3.208,0.597 -0.905,0.397 -1.666,0.954 -2.282,1.67 -0.617,0.717 -1.079,1.572 -1.387,2.567 -0.309,0.994 -0.483,2.078 -0.523,3.252 0,1.173 0.179,2.247 0.537,3.222 0.358,0.974 0.861,1.819 1.507,2.536 0.646,0.716 1.412,1.272 2.298,1.671 0.884,0.397 1.854,0.596 2.909,0.596 1.372,0 2.51,-0.283 3.416,-0.85 C 0.427,3.476 1.153,2.755 1.701,1.88 2.247,1.004 2.625,0.05 2.834,-0.985 3.043,-2.019 3.127,-3.003 3.088,-3.938 l -11.547,0 c -0.02,-0.677 0.06,-1.318 0.239,-1.924 0.18,-0.607 0.467,-1.145 0.865,-1.611 0.398,-0.468 0.905,-0.841 1.522,-1.12 0.616,-0.278 1.343,-0.417 2.178,-0.417 1.074,0 1.954,0.249 2.641,0.746 0.686,0.496 1.137,1.253 1.357,2.267 l 2.506,0 C 2.511,-7.727 1.765,-9.03 0.611,-9.905" style="fill:#004990;fill-opacity:1;fill-rule:nonzero;stroke:none" id="path158"/>
        </g>
      </g>
    </g>
  </g>
</svg>